<mxfile host="Electron" modified="2023-11-18T12:50:45.634Z" agent="Mozilla/5.0 (Windows NT 10.0; Win64; x64) AppleWebKit/537.36 (KHTML, like Gecko) draw.io/21.6.1 Chrome/112.0.5615.204 Electron/24.6.1 Safari/537.36" etag="0NtLD9CoOu79kWUt3qw1" version="21.6.1" type="device">
  <diagram id="H83wo0A2_F-W40oAkNy8" name="Seite-1">
    <mxGraphModel dx="1356" dy="868" grid="1" gridSize="10" guides="1" tooltips="1" connect="1" arrows="1" fold="1" page="1" pageScale="1" pageWidth="827" pageHeight="1169" background="#FFFFFF" math="0" shadow="0">
      <root>
        <mxCell id="0" />
        <mxCell id="2" value="Layer 0" parent="0" />
        <mxCell id="ib_1mCeJuQ2F5FETemsA-15" value="&lt;div style=&quot;width: 121.8px;height:auto;word-break: break-word;&quot;&gt;&lt;div align=&quot;center&quot;&gt;&lt;font face=&quot;Arial&quot;&gt;Execute Loading Process&lt;/font&gt;&lt;/div&gt;&lt;/div&gt;" style="shape=mxgraph.arrows2.arrow;dy=0;dx=13;notch=0;shadow=0;strokeWidth=0;strokeColor=none;fillColor=#a2c4c9;opacity=100.0;html=1;nl2Br=0;verticalAlign=top;align=center;spacingLeft=2.6;spacingRight=0;whiteSpace=wrap;gliffyId=6;" parent="2" vertex="1">
          <mxGeometry x="625" y="20" width="190" height="90" as="geometry" />
        </mxCell>
        <mxCell id="ib_1mCeJuQ2F5FETemsA-21" style="shape=filledEdge;rounded=0;orthogonalLoop=1;jettySize=auto;html=1;entryX=0.5;entryY=0;entryDx=0;entryDy=0;labelBackgroundColor=default;strokeColor=#000000;strokeWidth=2;fontFamily=Helvetica;fontSize=11;fontColor=default;startArrow=none;startFill=0;endArrow=open;endFill=0;startSize=6;endSize=6;fillColor=none;" parent="2" source="3" target="ib_1mCeJuQ2F5FETemsA-19" edge="1">
          <mxGeometry relative="1" as="geometry" />
        </mxCell>
        <mxCell id="3" value="Data Vault&#xa;Pipeline Description" style="shape=document;size=0.2;shadow=0;strokeWidth=0;strokeColor=none;fillColor=#ffd966;opacity=100.0;nl2Br=0;verticalAlign=middle;align=center;spacingLeft=2.6;spacingRight=0;whiteSpace=wrap;gliffyId=0;" parent="2" vertex="1">
          <mxGeometry x="358" y="185" width="111" height="200" as="geometry" />
        </mxCell>
        <mxCell id="4" value="&lt;div style=&quot;width: 141.0px;height:auto;word-break: break-word;&quot;&gt;&lt;div align=&quot;center&quot;&gt;&lt;font face=&quot;Arial&quot;&gt;Define data vault model and mapping of source data&amp;nbsp;&lt;/font&gt;&lt;/div&gt;&lt;/div&gt;" style="shape=mxgraph.arrows2.arrow;dy=0;dx=32;notch=0;shadow=0;strokeWidth=0;strokeColor=none;fillColor=#a2c4c9;opacity=100.0;html=1;nl2Br=0;verticalAlign=middle;align=center;spacingLeft=3.0;spacingRight=0;whiteSpace=wrap;gliffyId=2;" parent="2" vertex="1">
          <mxGeometry x="170" y="20" width="180" height="90" as="geometry" />
        </mxCell>
        <mxCell id="5" value="&lt;div style=&quot;width: 121.8px;height:auto;word-break: break-word;&quot;&gt;&lt;div align=&quot;center&quot;&gt;Inspect source data and data structure&lt;/div&gt;&lt;/div&gt;" style="shape=mxgraph.arrows2.arrow;dy=0.04;dx=17;notch=0;shadow=0;strokeWidth=0;strokeColor=none;fillColor=#a2c4c9;opacity=100.0;html=1;nl2Br=0;verticalAlign=middle;align=center;spacingLeft=2.6;spacingRight=0;whiteSpace=wrap;gliffyId=4;" parent="2" vertex="1">
          <mxGeometry x="20" y="20" width="140" height="90" as="geometry" />
        </mxCell>
        <mxCell id="6" value="Deployment of data model" style="shape=mxgraph.arrows2.arrow;dy=0;dx=13;notch=0;shadow=0;strokeWidth=0;strokeColor=none;fillColor=#B9E0E6;opacity=100.0;nl2Br=0;verticalAlign=middle;align=center;spacingLeft=2.6;spacingRight=0;whiteSpace=wrap;gliffyId=6;" parent="2" vertex="1">
          <mxGeometry x="625" y="60" width="95" height="50" as="geometry" />
        </mxCell>
        <mxCell id="7" value="&lt;div style=&quot;width: 131.4px;height:auto;word-break: break-word;&quot;&gt;&lt;div align=&quot;center&quot;&gt;&lt;font face=&quot;Arial&quot;&gt;Implement/Generate&lt;/font&gt;&lt;/div&gt;&lt;div align=&quot;center&quot;&gt;&lt;font face=&quot;Arial&quot;&gt;loading process&lt;/font&gt;&lt;/div&gt;&lt;/div&gt;" style="shape=mxgraph.arrows2.arrow;dy=0;dx=25;notch=0;shadow=0;strokeWidth=0;strokeColor=none;fillColor=#a2c4c9;opacity=100.0;html=1;nl2Br=0;verticalAlign=middle;align=center;spacingLeft=2.8;spacingRight=0;whiteSpace=wrap;gliffyId=8;" parent="2" vertex="1">
          <mxGeometry x="480" y="19" width="140" height="91" as="geometry" />
        </mxCell>
        <mxCell id="8" style="shape=filledEdge;strokeWidth=2;strokeColor=#000000;fillColor=none;startArrow=none;startFill=0;startSize=6;endArrow=open;endFill=0;endSize=6;rounded=0;gliffyId=20;" parent="2" source="15" target="3" edge="1">
          <mxGeometry width="210" height="50" relative="1" as="geometry" />
        </mxCell>
        <mxCell id="9" style="shape=filledEdge;strokeWidth=2;strokeColor=#000000;fillColor=none;startArrow=open;startFill=0;startSize=6;endArrow=open;endFill=0;endSize=6;gliffyId=23;entryX=0;entryY=0.25;entryDx=0;entryDy=0;" parent="2" source="14" target="3" edge="1">
          <mxGeometry width="210" height="50" relative="1" as="geometry" />
        </mxCell>
        <mxCell id="10" style="shape=filledEdge;strokeWidth=2;strokeColor=#000000;fillColor=none;startArrow=none;startFill=0;startSize=6;endArrow=open;endFill=0;endSize=6;rounded=0;gliffyId=24;exitX=1;exitY=0.5;exitDx=0;exitDy=0;entryX=0;entryY=0.75;entryDx=0;entryDy=0;" parent="2" source="13" target="3" edge="1">
          <mxGeometry width="210" height="50" relative="1" as="geometry" />
        </mxCell>
        <mxCell id="12" value="&lt;div style=&quot;width: 304.2px;height:auto;word-break: break-word;&quot;&gt;&lt;div align=&quot;center&quot;&gt;&lt;span style=&quot;font-family: Arial; font-size: 12px; text-decoration: none; line-height: 14px;&quot;&gt;Tool&amp;nbsp;&lt;span style=&quot;background-color: initial;&quot;&gt;&amp;nbsp;&lt;/span&gt;Q&lt;/span&gt;&lt;/div&gt;&lt;div align=&quot;center&quot;&gt;&lt;font face=&quot;Arial&quot;&gt;Full Processing Product&amp;nbsp;&lt;/font&gt;&lt;/div&gt;&lt;/div&gt;" style="shape=rect;rounded=1;arcSize=15;absoluteArcSize=1;shadow=0;strokeWidth=0;strokeColor=none;fillColor=#d9d9d9;opacity=100.0;html=1;nl2Br=0;verticalAlign=middle;align=center;spacingLeft=6.4;spacingRight=0;whiteSpace=wrap;gliffyId=14;" parent="2" vertex="1">
          <mxGeometry x="550" y="350" width="260" height="56" as="geometry" />
        </mxCell>
        <mxCell id="13" value="Tool&amp;nbsp;&amp;nbsp;D&lt;br&gt;Product for reading metadata from source system, modelling Data Vault and mapping data" style="shape=rect;rounded=1;arcSize=15;absoluteArcSize=1;shadow=0;strokeWidth=0;strokeColor=none;fillColor=#d9d9d9;opacity=100.0;nl2Br=0;verticalAlign=middle;align=center;spacingLeft=5.6;spacingRight=0;whiteSpace=wrap;gliffyId=18;html=1;" parent="2" vertex="1">
          <mxGeometry x="60" y="360" width="190" height="70" as="geometry" />
        </mxCell>
        <mxCell id="14" value="Tool B&#xa;Convert script&#xa;to translate&#xa;Excel file with &#xa;source descriptionÂ " style="shape=rect;rounded=1;arcSize=15;absoluteArcSize=1;shadow=0;strokeWidth=0;strokeColor=none;fillColor=#d9d9d9;opacity=100.0;nl2Br=0;verticalAlign=middle;align=center;spacingLeft=0;spacingRight=0;gliffyId=12;spacing=0;" parent="2" vertex="1">
          <mxGeometry x="195" y="135" width="130" height="80" as="geometry" />
        </mxCell>
        <mxCell id="15" value="Tool&amp;nbsp; A&lt;br&gt;script reading strcuture from source DB dictionary an generating DVPD field syntax" style="shape=rect;rounded=1;arcSize=15;absoluteArcSize=1;shadow=0;strokeWidth=0;strokeColor=none;fillColor=#d9d9d9;opacity=100.0;nl2Br=0;verticalAlign=middle;align=center;spacingLeft=2.0;spacingRight=0;gliffyId=10;whiteSpace=wrap;html=1;" parent="2" vertex="1">
          <mxGeometry x="20" y="170" width="150" height="90" as="geometry" />
        </mxCell>
        <mxCell id="VnqYi02uXxQH7F4y87i5-15" style="shape=filledEdge;strokeWidth=2;strokeColor=#000000;fillColor=none;startArrow=none;startFill=0;startSize=6;endArrow=open;endFill=0;endSize=6;rounded=0;gliffyId=28;exitX=1.008;exitY=0.214;exitDx=0;exitDy=0;exitPerimeter=0;" parent="2" source="3" target="VnqYi02uXxQH7F4y87i5-16" edge="1">
          <mxGeometry width="210" height="50" relative="1" as="geometry">
            <mxPoint x="480" y="367.9000000000001" as="sourcePoint" />
            <mxPoint x="550" y="180" as="targetPoint" />
          </mxGeometry>
        </mxCell>
        <mxCell id="VnqYi02uXxQH7F4y87i5-16" value="Tool&amp;nbsp;&amp;nbsp;N&lt;br&gt;DDL Generator in&amp;nbsp; CI/CD Pipeline" style="shape=rect;rounded=1;arcSize=15;absoluteArcSize=1;shadow=0;strokeWidth=0;strokeColor=none;fillColor=#d9d9d9;opacity=100.0;nl2Br=0;verticalAlign=middle;align=center;spacingLeft=2.0;spacingRight=0;whiteSpace=wrap;gliffyId=12;html=1;" parent="2" vertex="1">
          <mxGeometry x="520" y="115" width="110" height="70" as="geometry" />
        </mxCell>
        <mxCell id="VnqYi02uXxQH7F4y87i5-17" value="Tool&amp;nbsp;&amp;nbsp;O&lt;br&gt;source specific data fetch and parse code generator" style="shape=rect;rounded=1;arcSize=15;absoluteArcSize=1;shadow=0;strokeWidth=0;strokeColor=none;fillColor=#d9d9d9;opacity=100.0;nl2Br=0;verticalAlign=middle;align=center;spacingLeft=2.0;spacingRight=0;gliffyId=12;whiteSpace=wrap;html=1;" parent="2" vertex="1">
          <mxGeometry x="530" y="200" width="150" height="50" as="geometry" />
        </mxCell>
        <mxCell id="VnqYi02uXxQH7F4y87i5-18" value="Tool&amp;nbsp;&amp;nbsp;P&lt;br&gt;generic data vault load module" style="shape=rect;rounded=1;arcSize=15;absoluteArcSize=1;shadow=0;strokeWidth=0;strokeColor=none;fillColor=#d9d9d9;opacity=100.0;nl2Br=0;verticalAlign=middle;align=center;spacingLeft=2.0;spacingRight=0;gliffyId=12;whiteSpace=wrap;html=1;" parent="2" vertex="1">
          <mxGeometry x="710" y="270" width="105" height="70" as="geometry" />
        </mxCell>
        <mxCell id="VnqYi02uXxQH7F4y87i5-19" style="shape=filledEdge;strokeWidth=2;strokeColor=#000000;fillColor=none;startArrow=none;startFill=0;startSize=6;endArrow=open;endFill=0;endSize=6;rounded=0;gliffyId=28;exitX=1.009;exitY=0.365;exitDx=0;exitDy=0;exitPerimeter=0;" parent="2" source="3" target="VnqYi02uXxQH7F4y87i5-17" edge="1">
          <mxGeometry width="210" height="50" relative="1" as="geometry">
            <mxPoint x="481.03999999999996" y="222.91599999999994" as="sourcePoint" />
            <mxPoint x="520" y="165" as="targetPoint" />
          </mxGeometry>
        </mxCell>
        <mxCell id="VnqYi02uXxQH7F4y87i5-20" style="shape=filledEdge;strokeWidth=2;strokeColor=#000000;fillColor=none;startArrow=none;startFill=0;startSize=6;endArrow=open;endFill=0;endSize=6;rounded=0;gliffyId=28;" parent="2" source="3" target="VnqYi02uXxQH7F4y87i5-18" edge="1">
          <mxGeometry width="210" height="50" relative="1" as="geometry">
            <mxPoint x="482.99" y="241.144" as="sourcePoint" />
            <mxPoint x="680" y="205" as="targetPoint" />
          </mxGeometry>
        </mxCell>
        <mxCell id="ib_1mCeJuQ2F5FETemsA-16" value="&lt;div style=&quot;width: 141.0px;height:auto;word-break: break-word;&quot;&gt;&lt;div align=&quot;center&quot;&gt;&lt;font face=&quot;Arial&quot;&gt;QA of Modell&lt;/font&gt;&lt;/div&gt;&lt;/div&gt;" style="shape=mxgraph.arrows2.arrow;dy=0;dx=18.83;notch=0;shadow=0;strokeWidth=0;strokeColor=none;fillColor=#a2c4c9;opacity=100.0;html=1;nl2Br=0;verticalAlign=middle;align=center;spacingLeft=3.0;spacingRight=0;whiteSpace=wrap;gliffyId=2;" parent="2" vertex="1">
          <mxGeometry x="359" y="20" width="110" height="90" as="geometry" />
        </mxCell>
        <mxCell id="ib_1mCeJuQ2F5FETemsA-17" value="&lt;div style=&quot;width: 93.0px;height:auto;word-break: break-word;&quot;&gt;&lt;div align=&quot;center&quot;&gt;Tool&amp;nbsp;&lt;span style=&quot;font-family: Arial; background-color: initial;&quot;&gt;&amp;nbsp;C&amp;nbsp;&lt;/span&gt;&lt;/div&gt;&lt;div align=&quot;center&quot;&gt;&lt;font face=&quot;Arial&quot;&gt;Text Editor&lt;/font&gt;&lt;/div&gt;&lt;/div&gt;" style="shape=rect;rounded=1;arcSize=15;absoluteArcSize=1;shadow=0;strokeWidth=0;strokeColor=none;fillColor=#d9d9d9;opacity=100.0;html=1;nl2Br=0;verticalAlign=middle;align=center;spacingLeft=2.0;spacingRight=0;whiteSpace=wrap;gliffyId=12;" parent="2" vertex="1">
          <mxGeometry x="150" y="280" width="120" height="50" as="geometry" />
        </mxCell>
        <mxCell id="ib_1mCeJuQ2F5FETemsA-18" style="shape=filledEdge;strokeWidth=2;strokeColor=#000000;fillColor=none;startArrow=open;startFill=0;startSize=6;endArrow=open;endFill=0;endSize=6;gliffyId=23;" parent="2" source="ib_1mCeJuQ2F5FETemsA-17" target="3" edge="1">
          <mxGeometry width="210" height="50" relative="1" as="geometry">
            <mxPoint x="200" y="265" as="sourcePoint" />
            <mxPoint x="359" y="230" as="targetPoint" />
          </mxGeometry>
        </mxCell>
        <mxCell id="ib_1mCeJuQ2F5FETemsA-19" value="Tool&amp;nbsp;&amp;nbsp;E&lt;br&gt;naming&lt;br&gt;compliance checker" style="shape=rect;rounded=1;arcSize=15;absoluteArcSize=1;shadow=0;strokeWidth=0;strokeColor=none;fillColor=#d9d9d9;opacity=100.0;nl2Br=0;verticalAlign=middle;align=center;spacingLeft=2.0;spacingRight=0;whiteSpace=wrap;gliffyId=12;html=1;" parent="2" vertex="1">
          <mxGeometry x="260" y="425" width="90" height="70" as="geometry" />
        </mxCell>
        <mxCell id="ib_1mCeJuQ2F5FETemsA-22" style="shape=filledEdge;strokeWidth=2;strokeColor=#000000;fillColor=none;startArrow=none;startFill=0;startSize=6;endArrow=open;endFill=0;endSize=6;rounded=0;gliffyId=28;" parent="2" source="3" target="12" edge="1">
          <mxGeometry width="210" height="50" relative="1" as="geometry">
            <mxPoint x="490.9499999999998" y="248" as="sourcePoint" />
            <mxPoint x="720" y="297.5" as="targetPoint" />
          </mxGeometry>
        </mxCell>
        <mxCell id="ib_1mCeJuQ2F5FETemsA-23" value="&lt;div style=&quot;width: 93.0px;height:auto;word-break: break-word;&quot;&gt;&lt;div align=&quot;center&quot;&gt;Tool&amp;nbsp;&lt;span style=&quot;font-family: Arial; background-color: initial;&quot;&gt;&amp;nbsp;&lt;/span&gt;&lt;font face=&quot;Arial&quot;&gt;F&lt;/font&gt;&lt;/div&gt;&lt;div align=&quot;center&quot;&gt;&lt;font face=&quot;Arial&quot;&gt;generator for compliant column names&quot;&lt;/font&gt;&lt;/div&gt;&lt;/div&gt;" style="shape=rect;rounded=1;arcSize=15;absoluteArcSize=1;shadow=0;strokeWidth=0;strokeColor=none;fillColor=#d9d9d9;opacity=100.0;html=1;nl2Br=0;verticalAlign=middle;align=center;spacingLeft=2.0;spacingRight=0;whiteSpace=wrap;gliffyId=12;" parent="2" vertex="1">
          <mxGeometry x="380" y="427.5" width="150" height="65" as="geometry" />
        </mxCell>
        <mxCell id="ib_1mCeJuQ2F5FETemsA-24" style="shape=filledEdge;rounded=0;orthogonalLoop=1;jettySize=auto;html=1;labelBackgroundColor=default;strokeColor=#000000;strokeWidth=2;fontFamily=Helvetica;fontSize=11;fontColor=default;startArrow=open;startFill=0;endArrow=open;endFill=0;startSize=6;endSize=6;fillColor=none;" parent="2" source="3" target="ib_1mCeJuQ2F5FETemsA-23" edge="1">
          <mxGeometry relative="1" as="geometry">
            <mxPoint x="419.0000000000002" y="380" as="sourcePoint" />
            <mxPoint x="495" y="440" as="targetPoint" />
          </mxGeometry>
        </mxCell>
      </root>
    </mxGraphModel>
  </diagram>
</mxfile>
